<?xml version="1.0" encoding="utf-8"?>
<svg xmlns="http://www.w3.org/2000/svg" viewBox="0 0 32 32">
  <path stroke="none" fill="#000000" d="M 23.592 13.97 L 24.04 14.843 L 24.302 15.498 L 24.402 15.798 C 25.135 17.531 25.235 19.298 24.702 21.098 L 24.402 21.898 L 24.452 21.848 C 23.652 23.548 22.368 24.681 20.602 25.248 L 19.952 25.348 L 19.902 25.398 L 20.602 25.298 L 17.052 25.648 L 16.752 25.548 C 15.785 25.248 14.748 24.96 13.748 24.327 C 13.014 23.894 12.304 23.699 11.599 23.244 L 9.258 21.63 L 8.132 20.68 C 7.565 20.18 7.091 19.847 6.925 19.18 L 6.925 18.93 C 6.791 18.297 6.399 17.901 6.733 17.368 L 7.046 16.43 C 7.512 15.93 7.908 15.647 8.608 15.58 L 8.658 15.53 L 9.552 15.248 L 9.502 15.248 L 8.594 13.098 L 8.086 12.108 C 7.552 11.275 7.638 11.243 7.618 10.625 L 7.693 9.97 C 7.826 9.47 8.487 8.961 9.221 8.494 L 10.722 8.612 C 10.937 6.991 11.766 7.223 12.363 6.775 C 13.073 6.424 14.4 7.86 14.7 7.46 C 15 6.76 15.028 6.87 15.774 6.296 C 16.357 6.228 16.794 5.596 18.255 6.571 L 19.892 7.893 L 22.278 10.961 M 20.188 12.176 C 19.321 10.943 18.322 10.203 18.056 8.736 L 17.218 8.26 C 16.41 8.178 16.757 8.046 16.124 8.246 C 15.837 8.297 16.725 8.811 17.515 9.819 C 18.286 10.805 18.72 12.885 18.72 12.885 L 14.952 11.948 L 14.902 12.548 L 14.875 13.73 L 14.775 13.93 L 14.612 13.782 L 13.722 13.316 L 12.722 12.366 L 11.422 10.816 L 11.376 10.922 C 10.909 10.289 10.756 9.987 10.156 10.354 L 10.106 10.354 L 9.606 10.854 L 9.806 11.504 C 11.106 13.604 11.602 14.798 12.402 17.198 L 12.402 18.198 L 11.802 18.948 L 10.852 19.148 L 9.725 17.53 L 9.125 17.83 L 9.125 17.93 C 8.925 18.163 8.841 18.413 8.875 18.68 L 9.325 19.38 L 9.425 19.48 L 11.752 21.298 C 12.885 21.498 13.918 21.881 14.852 22.448 L 17.352 23.648 L 19.902 23.398 L 19.952 23.348 C 21.185 22.948 22.068 22.165 22.602 20.998 L 22.752 20.598 C 23.218 19.165 23.118 17.748 22.452 16.348 L 22.452 16.298"/>
  <path stroke="none" fill="#FFFFFF" d="M 17.617 8.27 L 18.281 8.942 C 20.363 10.737 21.785 14.698 22.452 16.298 L 22.452 16.348 C 23.118 17.748 23.218 19.165 22.752 20.598 L 22.602 20.998 C 22.068 22.165 21.185 22.948 19.952 23.348 L 19.902 23.398 L 17.352 23.648 L 16.31 23.49 C 15.229 23.018 14.138 22.727 13.194 21.994 L 11.721 21.241 L 9.639 19.722 L 9.039 18.955 L 8.939 18.855 L 8.489 18.155 C 8.455 17.888 8.628 17.31 8.828 17.077 L 8.828 16.977 L 9.994 16.826 L 11.329 18.046 L 11.921 18.442 L 12.402 18.198 L 12.402 17.198 C 11.602 14.798 11.041 13.526 9.741 11.426 L 9.541 10.776 L 10.041 10.276 L 10.091 10.276 C 10.691 9.909 11.041 10.18 11.508 10.813 L 12.282 11.518 L 12.919 12.335 L 13.919 13.285 L 14.335 13.497 L 14.602 13.498 L 14.702 13.298 L 14.653 12.703 L 14.361 12.134 L 13.327 10.722 L 12.274 9.733 C 12.107 9.133 12.276 8.627 12.843 8.527 C 13.476 8.327 14.161 8.467 14.461 9.134 L 15.618 10.342 C 16.723 11.408 16.611 11.829 17.463 12.497 C 17.559 12.573 17.925 12.615 18.071 12.503 C 18.182 12.226 17.642 11.051 17.543 10.775 C 17.216 9.858 16.103 9.271 16.118 8.579 L 16.112 8.212 L 16.318 8.046 C 16.701 7.962 16.402 7.929 16.802 7.929"/>
</svg>